<svg width="59" height="68" viewBox="0 0 59 68" fill="none" xmlns="http://www.w3.org/2000/svg">
<path d="M1.89062 54.7178L7.36336 45.0908C10.5207 39.8188 15.783 36.3806 21.6767 36.3806H35.569C35.569 41.4233 31.7802 45.5492 27.1494 45.5492H22.9396" stroke="black" stroke-width="3" stroke-miterlimit="10" stroke-linecap="round" stroke-linejoin="round"/>
<path d="M29.2545 45.5492H43.9888L46.5147 41.8818C48.8301 38.4436 52.6189 36.3806 56.6182 36.3806L50.935 47.3829C47.9881 53.3425 42.0944 57.01 35.9902 57.01C26.0972 57.01 16.4147 60.219 8.20557 66.1786" stroke="black" stroke-width="3" stroke-miterlimit="10" stroke-linecap="round" stroke-linejoin="round"/>
<path d="M33.4648 20.3356C33.4648 11.3962 39.99 4.29053 48.1991 4.29053C48.1991 13.2299 41.6739 20.3356 33.4648 20.3356Z" stroke="black" stroke-width="3" stroke-miterlimit="10" stroke-linecap="round" stroke-linejoin="round"/>
<path d="M33.4648 27.2121C25.2557 27.2121 18.7305 20.1064 18.7305 11.167C26.9396 11.167 33.4648 18.2727 33.4648 27.2121Z" stroke="black" stroke-width="3" stroke-miterlimit="10" stroke-linecap="round" stroke-linejoin="round"/>
<path d="M33.4648 1.99835V36.3806" stroke="black" stroke-width="3" stroke-miterlimit="10" stroke-linecap="round" stroke-linejoin="round"/>
</svg>
