<svg width="67" height="66" viewBox="0 0 67 66" fill="none" xmlns="http://www.w3.org/2000/svg">
<path d="M33.524 0.998629C33.3027 1.00203 33.0852 1.05736 32.8889 1.16019L3.07044 16.8486C2.84092 16.9697 2.64877 17.1515 2.51482 17.3745C2.38087 17.5974 2.31023 17.8529 2.31055 18.1133V22.392C2.31059 22.7702 2.4602 23.1329 2.72648 23.4004C2.99276 23.6679 3.35391 23.8181 3.73048 23.8182H5.15041V25.8154C5.15041 27.5439 6.37765 29.0168 7.99027 29.4116V55.2118H3.87192L4.10765 55.2313C2.35827 54.9355 0.890625 56.4426 0.890625 58.0921V62.0114C0.890625 63.6946 2.21692 65.1786 3.87192 65.1786H63.0846C64.7396 65.1786 66.0659 63.8057 66.0659 62.1562V58.2369C66.0659 56.5874 64.7396 55.2118 63.0846 55.2118H59.1077V29.4116C60.7203 29.0168 61.9476 27.5439 61.9476 25.8154V23.8182H63.3675C63.7441 23.8181 64.1052 23.6679 64.3715 23.4004C64.6378 23.1329 64.7874 22.7702 64.7874 22.392V18.1133C64.7878 17.8529 64.7171 17.5974 64.5832 17.3745C64.4492 17.1515 64.2571 16.9697 64.0275 16.8486L34.209 1.16019C33.9978 1.04947 33.7622 0.993911 33.524 0.998629ZM33.549 4.03771L61.9476 18.9768V20.9657H60.7661C60.6128 20.9403 60.4563 20.9403 60.303 20.9657H46.5474C46.4677 20.9523 46.387 20.9458 46.3062 20.9462C46.2374 20.9477 46.1688 20.9542 46.1009 20.9657H40.8871C40.7338 20.9403 40.5773 20.9403 40.424 20.9657H26.6684C26.5887 20.9523 26.508 20.9458 26.4272 20.9462C26.3584 20.9477 26.2898 20.9542 26.2219 20.9657H21.0081C20.8548 20.9403 20.6983 20.9403 20.545 20.9657H6.78943C6.7097 20.9523 6.62899 20.9458 6.54815 20.9462C6.47937 20.9477 6.41078 20.9542 6.34293 20.9657H5.15041V18.9768L33.549 4.03771ZM7.99027 23.8182H19.3497V25.8154C19.3497 26.3595 19.04 26.6706 18.4983 26.6706H8.84167C8.3 26.6706 7.99027 26.3595 7.99027 25.8154V23.8182ZM22.1896 23.8182H25.0294V25.8154C25.0294 27.5439 26.2567 29.0168 27.8693 29.4116V55.2118H19.3497V29.4116C20.9623 29.0168 22.1896 27.5439 22.1896 25.8154V23.8182ZM27.8693 23.8182H39.2287V25.8154C39.2287 26.3595 38.919 26.6706 38.3773 26.6706H28.7207C28.179 26.6706 27.8693 26.3595 27.8693 25.8154V23.8182ZM42.0686 23.8182H44.9084V25.8154C44.9084 27.5439 46.1357 29.0168 47.7483 29.4116V55.2118H39.2287V29.4116C40.8413 29.0168 42.0686 27.5439 42.0686 25.8154V23.8182ZM47.7483 23.8182H59.1077V25.8154C59.1077 26.3595 58.798 26.6706 58.2563 26.6706H48.5997C48.058 26.6706 47.7483 26.3595 47.7483 25.8154V23.8182ZM10.8301 29.5231H16.5098V55.1951H10.8301V29.5231ZM30.7091 29.5231H36.3888V55.1951H30.7091V29.5231ZM50.5881 29.5231H56.2679V55.1951H50.5881V29.5231ZM3.7083 58.0531C3.76258 58.0599 3.81721 58.0637 3.87192 58.0642H63.0846C63.1335 58.0642 63.2261 58.1436 63.2261 58.2369V62.1562C63.2261 62.2496 63.1335 62.3262 63.0846 62.3262H3.87192C3.82301 62.3262 3.73048 62.3592 3.73048 62.0114V58.0921C3.73048 58.0591 3.71818 58.0585 3.7083 58.0531Z" fill="black"/>
</svg>
