<svg width="64" height="62" viewBox="0 0 64 62" fill="none" xmlns="http://www.w3.org/2000/svg">
<path d="M54.8435 7.39775H60.5424V16.8206H3.55354V7.39775H9.25242V4.22932H0.704102V61.1786H63.3918V4.22932H54.8435V7.39775ZM60.5424 58.0102H3.55354V20.0714H60.5424V58.0102ZM17.8007 7.39775V4.22932H46.2952V7.39775H17.8007ZM12.1019 0.978516H14.9513V10.4838H12.1019V0.978516ZM49.1446 0.978516H51.994V10.4838H49.1446V0.978516ZM24.0952 49.4839L32.0479 43.0552L40.0007 49.4808L36.9632 39.0852L44.9132 32.6628H35.0855L32.0479 22.2672L29.0104 32.6628H19.1799L27.1327 39.0883L24.0952 49.4839ZM31.0791 35.8312L32.0479 32.517L33.0168 35.8312H36.1426L33.6123 37.878L34.5811 41.1858L32.0479 39.1422L29.5148 41.1858L30.4836 37.878L27.9505 35.8312H31.0791Z" fill="black"/>
</svg>
