<svg width="64" height="62" viewBox="0 0 64 62" fill="none" xmlns="http://www.w3.org/2000/svg">
<path d="M53.4056 8.73327V0.225647H50.7465V8.73339H42.9234V0.225647H40.2643V8.73339H32.4427V0.225647H29.7835V8.73339H0.51709V61.762H63.0075V8.73327H53.4056ZM27.5437 59.1303H11.9808V35.3423C11.9808 31.4571 15.1749 28.2962 19.1001 28.2962H20.4232C24.3496 28.2962 27.5437 31.4571 27.5437 35.3423V59.1303ZM60.3483 59.1303H30.2028V35.3423C30.2028 30.0058 25.8155 25.6646 20.4232 25.6646H19.1001C13.7078 25.6646 9.3216 30.0057 9.3216 35.3423V59.1303H3.17625V11.3648H60.3483V59.1303Z" fill="black"/>
<path d="M42.2396 18.9211H34.6606V21.5527H42.2396V18.9211Z" fill="black"/>
<path d="M56.2689 18.9211H48.6899V21.5527H56.2689V18.9211Z" fill="black"/>
<path d="M42.2396 27.1204H34.6606V29.752H42.2396V27.1204Z" fill="black"/>
<path d="M56.2689 27.1204H48.6899V29.752H56.2689V27.1204Z" fill="black"/>
<path d="M42.2396 35.3196H34.6606V37.9513H42.2396V35.3196Z" fill="black"/>
<path d="M56.2689 35.3196H48.6899V37.9513H56.2689V35.3196Z" fill="black"/>
</svg>
