<svg width="66" height="66" viewBox="0 0 66 66" fill="none" xmlns="http://www.w3.org/2000/svg">
<g clip-path="url(#clip0_313_1326)">
<path d="M50.813 26.4549C50.0788 26.4549 49.4834 27.0412 49.4834 27.7642V29.9899C49.4834 30.713 50.0788 31.2992 50.813 31.2992C51.5472 31.2992 52.1426 30.7131 52.1426 29.9899V27.7642C52.1426 27.0412 51.5472 26.4549 50.813 26.4549Z" fill="black"/>
<path d="M41.3122 56.8951H39.6846C38.9502 56.8951 38.355 57.4814 38.355 58.2044C38.355 58.9274 38.9502 59.5137 39.6846 59.5137H41.3122C42.0464 59.5137 42.6418 58.9274 42.6418 58.2044C42.6418 57.4814 42.0465 56.8951 41.3122 56.8951Z" fill="black"/>
<path d="M35.1642 56.8951H31.6593V53.8092H32.8841C33.6183 53.8092 34.2136 53.2229 34.2136 52.4999C34.2136 51.7768 33.6183 51.1906 32.8841 51.1906H31.6593V47.4975H32.8841C33.6183 47.4975 34.2136 46.9112 34.2136 46.1882C34.2136 45.465 33.6183 44.8789 32.8841 44.8789H31.6593V42.5324C31.6593 42.316 31.6049 42.1029 31.5007 41.9122L28.7868 36.9441C28.5551 36.5198 28.1053 36.2551 27.6158 36.2551C27.1265 36.2551 26.6768 36.5197 26.4448 36.944L23.7304 41.9121C23.6262 42.1029 23.5718 42.316 23.5718 42.5324V44.8789H21.296V42.5324C21.296 42.316 21.2415 42.1029 21.1374 41.9122L18.4234 36.9441C18.1918 36.5198 17.7419 36.2551 17.2524 36.2551C16.763 36.2551 16.3134 36.5197 16.0815 36.9441L13.3675 41.9122C13.2634 42.1029 13.2089 42.316 13.2089 42.5324V44.8789H10.9334V42.5324C10.9334 42.316 10.8789 42.1029 10.7748 41.9122L8.06059 36.9441C7.82866 36.5198 7.37905 36.2551 6.8896 36.2551C6.40015 36.2551 5.95054 36.5197 5.71861 36.9441L3.00442 41.9122C2.90029 42.1029 2.84581 42.316 2.84581 42.5324V44.8789H1.6211C0.886864 44.8789 0.291504 45.465 0.291504 46.1882C0.291504 46.9112 0.886736 47.4975 1.6211 47.4975H2.84581V51.1906H1.6211C0.886864 51.1906 0.291504 51.7768 0.291504 52.4999C0.291504 53.2229 0.886736 53.8092 1.6211 53.8092H2.84581V56.8951H1.6211C0.886864 56.8951 0.291504 57.4814 0.291504 58.2044C0.291504 58.9275 0.886736 59.5137 1.6211 59.5137H35.1639C35.8981 59.5137 36.4935 58.9275 36.4935 58.2044C36.4935 57.4814 35.8985 56.8951 35.1642 56.8951ZM8.27432 56.8951H5.50514V53.8092H8.27432V56.8951ZM8.27432 51.1906H5.50514V47.4975H8.27432V51.1906ZM8.27432 44.8789H5.50514V42.8624L6.88973 40.3279L8.27432 42.8624V44.8789ZM13.2092 56.895H10.9334V53.8091H13.2092V56.895ZM13.2092 51.1906H10.9334V47.4975H13.2092V51.1906ZM18.6369 56.8951H15.8682V53.8092H18.6369V56.8951ZM18.6369 51.1906H15.8682V47.4975H18.6369V51.1906ZM18.6369 44.8789H15.8682V42.8622L17.2526 40.3281L18.6369 42.8622V44.8789ZM23.5719 56.895H21.2961V53.8091H23.5719V56.895ZM23.5719 51.1906H21.2961V47.4975H23.5719V51.1906ZM29.0003 56.8951H26.2311V53.8092H29.0003V56.8951ZM29.0003 51.1906H26.2311V47.4975H29.0003V51.1906ZM29.0003 44.8789H26.2311V42.8624L27.6158 40.3279L29.0003 42.8622V44.8789Z" fill="black"/>
<path d="M64.1103 56.8951H52.1425V50.0583H64.1103C64.5364 50.0583 64.9367 49.8572 65.1868 49.5174C65.437 49.1777 65.5065 48.7404 65.374 48.3418L52.0766 8.32928C51.8977 7.79114 51.3879 7.42725 50.8129 7.42725C50.2381 7.42725 49.7281 7.79114 49.5493 8.32928L36.252 48.342C36.1195 48.7407 36.189 49.1779 36.4391 49.5175C36.6893 49.8572 37.0895 50.0584 37.5157 50.0584H49.4835V56.8952H45.8329C45.0986 56.8952 44.5033 57.4815 44.5033 58.2045C44.5033 58.9275 45.0986 59.5138 45.8329 59.5138H64.1103C64.8445 59.5138 65.4399 58.9275 65.4399 58.2045C65.44 57.4814 64.8447 56.8951 64.1103 56.8951ZM50.8132 33.132C50.0789 33.132 49.4836 33.7183 49.4836 34.4413V38.2806L48.2841 37.0994C47.7647 36.5882 46.9232 36.5882 46.4037 37.0994C45.8844 37.6107 45.8844 38.4397 46.4037 38.9511L49.4836 41.9839V47.4399H39.3497L50.8132 12.9461L62.2766 47.4399H52.1427V46.5171L55.3724 43.3368C55.8916 42.8255 55.8916 41.9965 55.3724 41.4851C54.8531 40.9741 54.0116 40.9739 53.492 41.4851L52.1427 42.8138V34.4414C52.1427 33.7183 51.5473 33.132 50.8132 33.132Z" fill="black"/>
<path d="M24.1875 16.987C22.734 14.2192 19.8057 12.4078 16.6101 12.3713C15.5127 9.00346 12.3303 6.66339 8.6408 6.66339C4.02228 6.66339 0.264648 10.3637 0.264648 14.9117C0.264648 17.0725 1.10263 19.0914 2.59479 20.6171C1.92407 21.7291 1.53824 23.0281 1.53824 24.4147C1.53824 25.1379 2.13347 25.724 2.86784 25.724H30.1559C30.8901 25.724 31.4855 25.1379 31.4855 24.4147C31.4853 20.3869 28.2305 17.0973 24.1875 16.987ZM2.92372 14.9117C2.92372 11.8075 5.48846 9.28187 8.6408 9.28187C11.0065 9.28187 13.0666 10.6906 13.9285 12.7659C11.7562 13.4458 9.90052 14.9598 8.83607 16.9867C7.13961 17.0331 5.5833 17.6406 4.34663 18.6261C3.43354 17.608 2.92372 16.3029 2.92372 14.9117ZM4.37972 23.1054C4.95573 21.0861 6.82952 19.6026 9.04624 19.6026C9.20599 19.6026 9.3753 19.6112 9.5488 19.6285C10.1485 19.6884 10.7114 19.3447 10.925 18.7913C11.8036 16.5163 14.0489 14.9879 16.5119 14.9879C18.9749 14.988 21.2199 16.5164 22.0987 18.7914C22.3123 19.3447 22.8772 19.6886 23.4748 19.6285C23.6487 19.6112 23.8178 19.6026 23.9778 19.6026C26.1942 19.6026 28.068 21.0861 28.6439 23.1054H4.37972Z" fill="black"/>
</g>
<defs>
<clipPath id="clip0_313_1326">
<rect width="65.1753" height="64.1803" fill="white" transform="translate(0.264648 0.998352)"/>
</clipPath>
</defs>
</svg>
