<svg width="52" height="67" viewBox="0 0 52 67" fill="none" xmlns="http://www.w3.org/2000/svg">
<path d="M30.8737 19.4546L42.6554 8.70943L38.1578 0.505798H13.8738L9.37496 8.70943L21.1579 19.4546C9.20847 21.5342 0.144043 31.1148 0.144043 42.601C0.144043 55.6031 11.7507 66.1786 26.0152 66.1786C40.2796 66.1786 51.8863 55.6031 51.8863 42.601C51.8863 31.1148 42.8218 21.5331 30.8737 19.4546ZM27.6934 14.3792H24.3175L22.553 9.56099H29.4567L27.6934 14.3792ZM36.6958 2.62484L39.3378 7.44304H32.084L31.2127 2.62484H36.6958ZM31.9346 9.56099H38.4166L33.1303 14.3792H30.1712L31.9346 9.56099ZM23.1982 2.62484H28.8296L29.701 7.44304H22.3123L23.1982 2.62484ZM15.3345 2.62484H20.8152L19.9293 7.44304H12.6925L15.3345 2.62484ZM13.61 9.56099H20.0763L21.8396 14.3792H18.8781L13.61 9.56099ZM26.0152 64.0596C13.0462 64.0596 2.49552 54.433 2.49552 42.601C2.49552 30.7689 13.0474 21.1413 26.0152 21.1413C38.9829 21.1413 49.5336 30.7678 49.5336 42.601C49.5336 54.4341 38.9841 64.0596 26.0152 64.0596Z" fill="black"/>
<path d="M26.0151 23.6095C14.5226 23.6095 5.17139 32.1295 5.17139 42.601C5.17139 53.0736 14.5226 61.5936 26.0151 61.5936C37.5075 61.5936 46.8588 53.0747 46.8588 42.601C46.8588 32.1295 37.5075 23.6095 26.0151 23.6095ZM26.0151 59.4745C15.818 59.4745 7.52287 51.9046 7.52287 42.601C7.52287 33.2973 15.8193 25.7274 26.0151 25.7274C36.2109 25.7274 44.5061 33.2973 44.5061 42.601C44.5061 51.9046 36.2121 59.4745 26.0151 59.4745Z" fill="black"/>
</svg>
