<svg width="73" height="66" viewBox="0 0 73 66" fill="none" xmlns="http://www.w3.org/2000/svg">
<path d="M72.1724 16.8281L67.2292 12.3924C67.012 12.1973 66.7173 12.0878 66.41 12.0878H64.1015L21.6446 1.14321C21.6309 1.1396 21.617 1.13766 21.6032 1.13448C21.3134 1.04618 21.0032 0.998352 20.6813 0.998352C20.0515 0.998352 19.4648 1.18147 18.991 1.50015C18.9572 1.52136 18.9241 1.54409 18.8921 1.56904L18.8441 1.60661C18.8336 1.61465 18.8232 1.62269 18.8129 1.63101L5.4218 12.0878H2.14783C1.50799 12.0878 0.989258 12.5533 0.989258 13.1274V21.999C0.989258 22.5732 1.50799 23.0387 2.14783 23.0387H9.5627C10.2025 23.0387 10.7213 22.5732 10.7213 21.999V18.6029H14.5832V58.6635H13.2701C12.6303 58.6635 12.1116 59.129 12.1116 59.7032V64.139C12.1116 64.7131 12.6303 65.1786 13.2701 65.1786H28.0999C28.7397 65.1786 29.2584 64.7131 29.2584 64.139V59.7032C29.2584 59.129 28.7397 58.6635 28.0999 58.6635H26.7868V29.6923H31.0168C32.7413 29.6923 34.2383 28.591 34.5764 27.0736L36.4646 18.6029H60.3082V21.999C60.3082 23.4318 61.3447 24.6505 62.7798 25.0855V32.7239L58.0905 37.9839C57.9262 38.1683 57.8366 38.3973 57.8366 38.6334V47.5049C57.8366 48.0791 58.3553 48.5446 58.9951 48.5446H68.8816C69.5215 48.5446 70.0402 48.0791 70.0402 47.5049V38.6334C70.0402 38.3973 69.9506 38.1683 69.7862 37.9839L65.097 32.7238V25.0854C66.532 24.6504 67.5686 23.4316 67.5686 21.9989V18.6029H71.3532C71.8219 18.6029 72.2443 18.3496 72.4236 17.9611C72.603 17.5725 72.5038 17.1255 72.1724 16.8281ZM20.6887 3.07763C20.9067 3.07763 21.1025 3.20848 21.1651 3.39575L24.0711 12.0878H17.2989L20.2047 3.39575C20.2674 3.20848 20.4633 3.07763 20.6887 3.07763ZM26.4902 12.0878L23.7345 3.84529L55.7093 12.0878H26.4902ZM16.9742 5.8231L14.8798 12.0878H9.5627H8.95143L16.9742 5.8231ZM8.40412 20.9594H3.3064V14.1671H8.40412V20.9594ZM16.9003 20.1273L19.3247 23.6624L16.9003 27.1976V20.1273ZM20.685 40.0624L23.555 44.2472H17.8151L20.685 40.0624ZM16.9003 41.6139V34.5437L19.3247 38.0789L16.9003 41.6139ZM22.0453 38.0787L24.4697 34.5436V41.6138L22.0453 38.0787ZM20.685 36.0951L17.815 31.9102H23.5549L20.685 36.0951ZM23.555 46.3265L20.685 50.5114L17.815 46.3265H23.555ZM24.4697 27.1976L22.0453 23.6624L24.4697 20.1273V27.1976ZM23.555 29.8309H17.8151L20.6852 25.6461L23.555 29.8309ZM19.3247 52.495L16.9003 56.0302V48.96L19.3247 52.495ZM20.685 54.4787L23.555 58.6635H17.8151L20.685 54.4787ZM22.0453 52.495L24.4697 48.9599V56.0301L22.0453 52.495ZM20.685 21.6788L18.5756 18.6029H22.7945L20.685 21.6788ZM26.9413 63.0993H14.4287V60.7428H26.9413V63.0993ZM31.0168 27.6131H26.7868V21.9297H33.3599L32.3044 26.6659C32.1821 27.2148 31.6406 27.6131 31.0168 27.6131ZM33.8234 19.8504H26.7868V18.6029H34.1014L33.8234 19.8504ZM63.9384 34.7527L66.471 37.5936H61.4056L63.9384 34.7527ZM60.1537 46.4651V39.6728H67.7231V46.4651H60.1537ZM65.2514 21.999C65.2514 22.6487 64.6624 23.1773 63.9384 23.1773C63.2143 23.1773 62.6253 22.6487 62.6253 21.999V18.6029H65.2514V21.999ZM10.7213 16.5236V14.1671H65.9302L68.5563 16.5236H10.7213Z" fill="black"/>
</svg>
